<svg xmlns="http://www.w3.org/2000/svg" viewBox="0 0 48 48" width="48" height="48" aria-hidden="true">
  <path fill="#FFC107" d="M43.611,20.083H42V20H24v8h11.303C33.602,32.978,29.197,36,24,36c-6.627,0-12-5.373-12-12 s5.373-12,12-12c3.059,0,5.842,1.153,7.961,3.039l5.657-5.657C34.869,6.053,29.683,4,24,4C12.955,4,4,12.955,4,24 s8.955,20,20,20s20-8.955,20-20C44,22.659,43.862,21.35,43.611,20.083z"/>
  <path fill="#FF3D00" d="M6.306,14.691l6.571,4.818C14.215,16.173,18.732,12,24,12c3.059,0,5.842,1.153,7.961,3.039l5.657-5.657 C34.869,6.053,29.683,4,24,4C16.318,4,9.656,8.337,6.306,14.691z"/>
  <path fill="#4CAF50" d="M24,44c5.138,0,9.747-1.97,13.234-5.182l-6.104-5.163C29.078,35.091,26.676,36,24,36 c-5.167,0-9.559-3.003-11.6-7.356l-6.531,5.027C9.193,39.556,16.018,44,24,44z"/>
  <path fill="#1976D2" d="M43.611,20.083H42V20H24v8h11.303c-1.087,3.073-3.29,5.511-6.173,7.02c0,0,0.001,0,0.001,0l6.104,5.163 C34.861,40.205,44,34,44,24C44,22.659,43.862,21.35,43.611,20.083z"/>
</svg>